<svg
  className="pointer-events-none -ml-28 cursor-not-allowed select-none"
  xmlns="http://www.w3.org/2000/svg"
  viewBox="735 0 525 190"
  preserveAspectRatio="xMidYMid meet"
  height="50"
>
    <g data-padding="20">
    <g transform="translate(10 3.53)scale(.96324)">
        <rect
        width="215"
        height="600"
        x="231.758"
        y="396.815"
        rx="104"
        ry="104"
        transform="rotate(-90 399.63 .76)scale(.9)"
        />
        <rect
        width="385"
        height="160"
        x="436.416"
        y="-384.62"
        fill="none"
        rx="0"
        ry="0"
        transform="translate(400.5 409.5)"
        />
        <path
        fill="#5227FF"
        d="M857.306 149.22q-7.38 0-10.93-4.4-3.55-4.41-3.55-11.79V66.86q0-10.79 5.89-15.91 5.9-5.11 14.13-5.11 7.81 0 13.28 5.11 5.47 5.12 8.02 16.19l11.08 48.14h3.69l11.08-48.14q2.55-11.07 8.16-16.19 5.61-5.11 13.42-5.11 8.24 0 14.13 5.11 5.89 5.12 5.89 15.91v66.17q0 7.38-3.62 11.79-3.62 4.4-11 4.4-7.1 0-10.94-4.4-3.83-4.41-3.83-11.79v-38.2q0-1.42-.36-2.63-.35-1.2-1.92-1.2-1.27 0-1.84 1.2-.57 1.21-.85 2.63l-5.4 35.79q-.99 5.82-2.34 10.01t-4.19 6.39-8.24 2.2q-5.25 0-8.16-2.2t-4.26-6.39-2.2-10.01l-5.54-35.79q-.14-1.42-.71-2.63-.57-1.2-1.99-1.2t-1.84 1.2q-.43 1.21-.43 2.63v38.2q0 7.38-3.76 11.79-3.77 4.4-10.87 4.4m140.43.99q-10.51 0-19.45-3.76-8.95-3.76-14.27-11.65-5.33-7.88-5.33-20.09 0-8.38 4.05-12.78t11-4.4q7.1 0 11.01 3.76 3.9 3.77 3.9 11.29 0 6.82 2.49 9.3 2.48 2.49 6.03 2.49t5.83-2.49q2.27-2.48 2.27-9.3v-9.8q0-7.24 1.91-11.92 1.92-4.69 4.48-7.32 2.55-2.62 4.54-3.48l-.71-2.69h-35.64q-6.82 0-10.86-4.05-4.05-4.05-4.33-11.29-.15-7.1 4.11-11.5t11.08-4.4h40.9q6.67 0 10.15 4.47t3.48 11.57v52.54q0 12.21-4.76 20.09-4.76 7.89-13.06 11.65-8.31 3.76-18.82 3.76m98.7-.99-22.43-.14q-6.54-.29-12.15-1.85-5.6-1.56-9.86-5.33-4.26-3.76-6.61-10.43-2.34-6.68-2.34-17.04 0-10.08 2.77-17.47 2.77-7.38 6.6-11.78 3.84-4.41 6.96-5.4l-.71-2.7h-2.41q-6.54 0-10.3-4.19t-3.9-11.29q-.15-7.1 3.76-11.43 3.9-4.33 10.44-4.33h39.05q15.33 0 22.15 7.31 6.81 7.32 6.81 18.96 0 9.37-4.33 15.62t-12.99 7.53v2.13q9.37.42 15.26 6.46 5.9 6.03 5.9 17.82 0 12.78-7.39 20.23-7.38 7.46-24.28 7.32m-26.27-70.01v6.11q0 3.12 1.14 4.12 1.13.99 4.26.99h13.06q5.4 0 8.24-1.63 2.84-1.64 2.84-6.46 0-4.97-2.84-6.54-2.84-1.56-8.24-1.56h-13.06q-3.13 0-4.26.85-1.14.86-1.14 4.12m0 27.12v7.53q0 3.12 1.21 4.26t4.47 1.14h14.63q5.54 0 8.52-1.99t2.98-7.1-2.98-7.03-8.52-1.92h-14.63q-3.26 0-4.47 1-1.21.99-1.21 4.11m133.76 42.89q-7.1 0-11.21-4.33-4.12-4.33-4.41-11.29-.56-12.07-6.03-17.11t-14.55-5.04h-2.84v22.72q0 7.38-3.98 11.21-3.98 3.84-10.51 3.84-6.96 0-10.93-3.84-3.98-3.83-3.98-11.21v-20.03q0-15.05 4.47-22.86 4.48-7.81 11.44-11.22l-.72-2.69h-2.27q-6.53 0-10.29-4.19t-4.05-11.43q-.14-7.1 3.84-11.51 3.97-4.4 10.5-4.4h36.21q15.2 0 24.57 7.39 9.37 7.38 9.37 23.57 0 8.38-2.84 13.98-2.84 5.61-7.24 8.6-4.4 2.98-9.23 3.55v1.84q8.8 2.13 14.55 9.37 5.75 7.25 5.75 19.46 0 7.81-4.18 11.71-4.19 3.91-11.44 3.91m-39.76-70.01v10.51q0 3.12 1.14 4.12 1.14.99 4.26.99h13.35q5.96 0 8.66-2.7 2.7-2.69 2.7-7.52 0-4.97-2.7-7.67t-8.66-2.7h-13.35q-3.12 0-4.26.85-1.14.86-1.14 4.12"
        />
    </g>
    <path
        fill="transparent"
        stroke="transparent"
        d="M728 0h544v192H728z"
    />
    </g>
</svg>